HIERARCHY
ROOT Hips
{
	OFFSET 0.00000 0.00000 0.00000
	CHANNELS 6 Xposition Yposition Zposition Zrotation Yrotation Xrotation 
	JOINT LHipJoint
	{
		OFFSET 0 0 0
		CHANNELS 3 Zrotation Yrotation Xrotation
		JOINT LeftHip
		{
			OFFSET 1.48831 -1.59570 0.95625
			CHANNELS 3 Zrotation Yrotation Xrotation
			JOINT LeftKnee
			{
				OFFSET 2.20856 -6.06797 0.00000
				CHANNELS 3 Zrotation Yrotation Xrotation
				JOINT LeftAnkle
				{
					OFFSET 2.62924 -7.22379 0.00000
					CHANNELS 3 Zrotation Yrotation Xrotation
					JOINT LeftToe
					{
						OFFSET 0.16802 -0.46163 2.41673
						CHANNELS 3 Zrotation Yrotation Xrotation
						End Site
						{
							OFFSET 0.00000 -0.00000 1.23760
						}
					}
				}
			}
		}
	}
	JOINT RHipJoint
	{
		OFFSET 0 0 0
		CHANNELS 3 Zrotation Yrotation Xrotation
		JOINT RightHip
		{
			OFFSET -1.56796 -1.59570 0.95625
			CHANNELS 3 Zrotation Yrotation Xrotation
			JOINT RightKnee
			{
				OFFSET -2.29239 -6.29829 0.00000
				CHANNELS 3 Zrotation Yrotation Xrotation
				JOINT RightAnkle
				{
					OFFSET -2.66963 -7.33475 0.00000
					CHANNELS 3 Zrotation Yrotation Xrotation
					JOINT RightToe
					{
						OFFSET -0.18185 -0.49964 2.34359
						CHANNELS 3 Zrotation Yrotation Xrotation
						End Site
						{
							OFFSET -0.00000 -0.00000 1.20477
						}
					}
				}
			}
		}
	}
	JOINT lowerback
	{
		OFFSET 0 0 0
		CHANNELS 3 Zrotation Yrotation Xrotation
		JOINT Chest
		{
			OFFSET 0.03505 2.15832 -0.34324
			CHANNELS 3 Zrotation Yrotation Xrotation
			JOINT Chest2
			{
				OFFSET -0.01089 2.17963 0.04689
				CHANNELS 3 Zrotation Yrotation Xrotation
				JOINT lowerneck
				{
					OFFSET 0 0 0
					CHANNELS 3 Zrotation Yrotation Xrotation
					JOINT Neck
					{
						OFFSET 0.04686 1.69404 0.22159
						CHANNELS 3 Zrotation Yrotation Xrotation
						JOINT Head
						{
							OFFSET 0.00265 1.69305 -0.01513
							CHANNELS 3 Zrotation Yrotation Xrotation
							End Site
							{
								OFFSET -0.00415 1.80215 -0.03034
							}
						}
					}
				}
				JOINT LeftCollar
				{
					OFFSET 0 0 0
					CHANNELS 3 Zrotation Yrotation Xrotation
					JOINT LeftShoulder
					{
						OFFSET 3.67184 1.11724 -0.19002
CHANNELS 3 Zrotation Xrotation Yrotation
						JOINT LeftElbow
						{
OFFSET 0 -5.177140 -0.000000
CHANNELS 3 Zrotation Xrotation Yrotation
							JOINT LeftWrist
							{
OFFSET 0 -3.436790 -0.000000
CHANNELS 3 Zrotation Xrotation Yrotation
								JOINT lhand
								{
									OFFSET 0 0 0
CHANNELS 3 Zrotation Xrotation Yrotation
									JOINT LFingers
									{
OFFSET 0 -0.573120 -0.000000
CHANNELS 3 Zrotation Xrotation Yrotation
										End Site
										{
OFFSET 0 -0.462060 -0.000000
										}
									}
								}
								JOINT LThumb
								{
OFFSET 0 0.000000 0.000000
CHANNELS 3 Zrotation Xrotation Yrotation
									End Site
									{
OFFSET 0 -0.469120 0.469120
									}
								}
							}
						}
					}
				}
				JOINT RightCollar
				{
					OFFSET 0 0 0
					CHANNELS 3 Zrotation Yrotation Xrotation
					JOINT RightShoulder
					{
						OFFSET -3.59596 0.95831 -0.26050
CHANNELS 3 Zrotation Xrotation Yrotation
						JOINT RightElbow
						{
OFFSET 0 -5.239080 -0.000000
CHANNELS 3 Zrotation Xrotation Yrotation
							JOINT RightWrist
							{
OFFSET 0 -3.464850 -0.000000
CHANNELS 3 Zrotation Xrotation Yrotation
								JOINT rhand
								{
									OFFSET 0 0 0
CHANNELS 3 Zrotation Xrotation Yrotation
									JOINT RFingers
									{
OFFSET 0 -0.608750 -0.000000
CHANNELS 3 Zrotation Xrotation Yrotation
										End Site
										{
OFFSET 0 -0.490790 -0.000000
										}
									}
								}
								JOINT RThumb
								{
OFFSET 0 0.000000 0.000000
CHANNELS 3 Zrotation Xrotation Yrotation
									End Site
									{
OFFSET 0 -0.498290 0.498290
									}
								}
							}
						}
					}
				}
			}
		}
	}
}
MOTION
Frames: 12
Frame Time: 0.008333333333333333
3.762600 16.305800 -4.006000 30.080400 -80.423800 -26.519400 0.000000 0.000000 0.000000 -30.505100 23.642800 -16.328500 1.456700 7.628700 21.591700 -0.340800 -18.569400 -9.758300 0.010300 0.654200 1.797900 0.000000 0.000000 0.000000 7.037200 -1.017900 -31.406600 -5.884700 -14.315700 44.517200 -1.010500 -7.999800 -23.482200 -0.008000 -0.579200 1.591600 -3.891000 -0.847700 -1.807900 -3.791000 -1.133200 -0.887100 -1.732400 -0.594900 0.099200 -7.211400 -7.196900 -3.927700 21.906600 -9.663100 -4.425300 7.581000 -4.992500 0.909400 -0.000000 -0.000000 0.000000 44.150000 30.077700 -90.644800 93.483000 -59.954100 63.015900 61.986600 -41.112100 31.853200 0.000000 0.000000 0.000000 -7.125000 0.000000 0.000000 15.945700 -21.272900 21.275300 -0.000000 -0.000000 0.000000 -28.123100 38.247900 82.611800 -73.279300 -58.916800 -45.572100 -66.581700 -11.585800 -16.656400 0.000000 0.000000 0.000000 7.125000 0.000000 -0.000000 -23.120000 -4.499100 -27.093900
3.824974 16.291835 -4.046042 31.473598 -80.531341 -27.760326 0.000000 0.000000 0.000000 -30.639085 21.877515 -15.521799 1.360345 7.382599 20.853797 -0.047758 -16.881915 -11.388502 0.007830 0.571641 1.570744 0.000000 0.000000 0.000000 6.978733 -1.184774 -32.122398 -5.948957 -14.378678 44.776405 -0.976940 -7.800059 -23.046487 -0.004838 -0.449314 1.234573 -4.028057 -0.756758 -1.603298 -3.855136 -1.010921 -0.650344 -1.718659 -0.536479 0.228996 -7.170290 -7.586207 -3.700036 22.495966 -10.033747 -5.751308 7.777920 -5.279839 0.586325 0.000000 0.000000 0.000000 44.188978 30.235453 -90.210438 93.834770 -59.944370 63.320406 59.814894 -38.463522 31.732492 0.000000 0.000000 0.000000 -7.125000 0.000000 0.000000 14.878212 -19.491222 19.511897 0.000000 0.000000 0.000000 -28.280886 38.369271 82.661524 -73.616321 -58.961062 -45.860834 -66.471873 -12.010789 -16.942639 0.000000 0.000000 0.000000 7.125000 0.000000 0.000000 -22.982697 -4.874012 -27.044324
3.928644 16.227319 -4.086153 31.384501 -80.200770 -27.736523 0.000000 0.000000 0.000000 -31.017196 22.531620 -16.548360 1.442026 7.591720 21.480752 -0.028847 -17.771496 -12.224231 0.045274 1.372379 3.774009 0.000000 0.000000 0.000000 6.877538 -2.655672 -33.764388 -6.268944 -14.683941 46.051638 -0.930833 -6.940319 -22.008169 -0.001092 -0.217733 0.598320 -4.157351 -0.616487 -0.854214 -4.010018 -0.851298 -0.211167 -1.796740 -0.460457 0.259507 -7.282370 -7.712262 -3.019085 23.755341 -9.971341 -7.598274 8.288220 -5.432802 0.029381 0.000000 0.000000 0.000000 44.262783 29.900281 -90.484214 93.807482 -59.945120 63.296740 60.984807 -40.347122 32.145586 0.000000 0.000000 0.000000 -7.125000 0.000000 0.000000 15.324286 -20.832118 20.333905 0.000000 0.000000 0.000000 -28.377415 37.792155 83.281112 -72.812311 -58.853750 -45.172265 -66.885019 -12.757820 -16.928588 0.000000 0.000000 0.000000 7.125000 0.000000 0.000000 -23.201391 -5.237871 -27.487380
4.005089 16.197672 -4.155091 34.464275 -79.122315 -30.759159 0.000000 0.000000 0.000000 -32.060490 23.937292 -17.039294 1.349818 7.355023 20.771519 -0.350128 -19.895063 -10.874114 0.129836 2.322756 6.398483 0.000000 0.000000 0.000000 5.839764 -3.654612 -34.897298 -6.526897 -14.920220 47.061399 -0.935707 -6.385978 -21.657647 -0.001062 -0.213938 0.587834 -5.079327 -0.575075 -0.451832 -4.612234 -0.830074 0.022178 -1.901588 -0.462989 0.276272 -7.356656 -7.709322 -2.506746 24.492089 -9.945227 -7.893589 8.576268 -5.490810 -0.091850 0.000000 0.000000 0.000000 44.692309 29.701315 -90.480209 94.351253 -59.928317 63.767396 63.818647 -42.789545 32.452792 0.000000 0.000000 0.000000 -7.125000 0.000000 0.000000 16.660818 -23.417111 22.607578 0.000000 0.000000 0.000000 -27.324212 36.829519 83.477874 -69.970430 -58.428510 -42.745410 -66.487668 -12.793635 -16.635291 0.000000 0.000000 0.000000 7.125000 0.000000 0.000000 -23.077189 -4.376707 -26.987525
4.084492 16.217429 -4.177560 31.763957 -78.823320 -28.123063 0.000000 0.000000 0.000000 -31.674604 21.151293 -15.903428 1.319867 7.276318 20.536655 0.065679 -17.040917 -12.608793 0.071718 1.727257 4.752550 0.000000 0.000000 0.000000 6.225305 -3.837725 -34.684154 -6.365610 -14.773489 46.431918 -0.911385 -6.746070 -21.692738 -0.004415 -0.427499 1.174539 -4.084617 -0.341272 -0.212370 -4.629706 -0.524952 0.155995 -2.470882 -0.306243 0.270024 -7.569682 -7.717523 -2.532126 23.424017 -10.017575 -7.118166 8.234936 -5.426623 0.081429 0.000000 0.000000 0.000000 45.184244 29.499398 -90.320973 94.900448 -59.909069 64.242658 61.486724 -39.614261 31.764440 0.000000 0.000000 0.000000 -7.125000 0.000000 0.000000 15.722075 -20.783724 20.886074 0.000000 0.000000 0.000000 -27.387705 36.995627 83.797604 -70.581203 -58.526056 -43.266010 -66.387531 -12.737970 -16.710255 0.000000 0.000000 0.000000 7.125000 0.000000 0.000000 -23.004096 -4.409758 -26.898729
4.133995 16.222300 -4.196473 29.598943 -78.651609 -26.176152 0.000000 0.000000 0.000000 -31.251122 19.657369 -15.334827 1.343498 7.338570 20.722411 0.251764 -15.623178 -13.480935 0.049116 1.429986 3.932816 0.000000 0.000000 0.000000 6.575056 -3.970604 -34.373377 -6.278361 -14.692732 46.088887 -0.909141 -6.802348 -21.713075 -0.009652 -0.634115 1.742580 -3.419958 -0.211839 -0.046084 -4.524184 -0.353143 0.216848 -2.732027 -0.215375 0.238612 -7.498719 -7.456197 -2.740603 22.439668 -9.812060 -5.789151 7.872583 -5.204749 0.390845 0.000000 0.000000 0.000000 44.934121 29.834132 -89.411620 95.167272 -59.898895 64.473447 59.520674 -38.204402 32.263808 0.000000 0.000000 0.000000 -7.125000 0.000000 0.000000 14.534577 -19.882178 19.094528 0.000000 0.000000 0.000000 -27.857527 36.738934 84.674862 -71.090715 -58.604850 -43.700806 -66.431082 -13.325631 -16.663007 0.000000 0.000000 0.000000 7.125000 0.000000 0.000000 -23.040061 -4.370989 -26.933800
4.144074 16.215581 -4.223589 29.666187 -78.322364 -26.262106 0.000000 0.000000 0.000000 -31.383739 21.268958 -16.045180 1.340225 7.330049 20.696796 -0.001900 -17.654180 -12.394336 0.090748 1.942538 5.346858 0.000000 0.000000 0.000000 6.457572 -4.176062 -34.559419 -6.339465 -14.749418 46.329362 -0.920319 -6.764593 -21.786660 -0.010726 -0.668169 1.836119 -3.699185 -0.223721 -0.323657 -4.575146 -0.354423 0.183483 -2.630023 -0.218647 0.361344 -7.349182 -7.279941 -3.064876 22.515306 -9.843071 -4.096291 7.816303 -5.110583 0.927680 0.000000 0.000000 0.000000 44.785242 30.032030 -89.129909 95.321505 -59.892702 64.606886 59.886519 -38.828791 32.378444 0.000000 0.000000 0.000000 -7.125000 0.000000 0.000000 14.678433 -20.277783 19.351457 0.000000 0.000000 0.000000 -27.613296 36.662352 84.328626 -70.870303 -58.571066 -43.512688 -66.396581 -13.062189 -16.606049 0.000000 0.000000 0.000000 7.125000 0.000000 0.000000 -23.038143 -4.244095 -26.882644
4.146300 16.211336 -4.241058 29.572311 -78.285463 -26.398946 0.000000 0.000000 0.000000 -31.252707 21.875429 -16.023399 1.335792 7.318334 20.661881 -0.085299 -18.246578 -12.040259 0.110263 2.141147 5.895808 0.000000 0.000000 0.000000 6.462847 -3.752005 -34.225735 -6.368143 -14.775843 46.442050 -0.935215 -7.102423 -22.165089 -0.009521 -0.630784 1.733323 -3.813144 -0.239809 -0.420667 -4.603260 -0.371603 0.158761 -2.595995 -0.228430 0.390552 -7.487432 -7.396824 -3.149439 23.081397 -10.259770 -2.804521 7.965822 -5.245551 1.417743 0.000000 0.000000 0.000000 44.804806 29.935662 -89.165585 95.309030 -59.893214 64.596156 60.322914 -39.378561 32.463798 0.000000 0.000000 0.000000 -7.125000 0.000000 0.000000 14.868767 -20.695040 19.676558 0.000000 0.000000 0.000000 -27.336907 36.771903 83.964209 -70.664334 -58.539113 -43.336942 -66.440369 -13.211862 -16.695873 0.000000 0.000000 0.000000 7.125000 0.000000 0.000000 -23.035557 -4.434384 -26.951813
4.140676 16.212798 -4.249627 29.278958 -78.547820 -26.384620 0.000000 0.000000 0.000000 -30.897907 21.109196 -15.307744 1.331680 7.307435 20.629403 0.085785 -17.046456 -12.800998 0.080147 1.826463 5.026352 0.000000 0.000000 0.000000 6.654462 -2.942458 -33.605589 -6.348247 -14.757513 46.363855 -0.955013 -7.538352 -22.661039 -0.009200 -0.620146 1.704033 -3.730386 -0.330452 -0.385702 -4.590901 -0.503888 0.014077 -2.629273 -0.292512 0.219283 -7.700226 -7.588474 -3.183076 23.409191 -10.751741 -1.683938 8.052664 -5.424996 1.853639 0.000000 0.000000 0.000000 44.961899 30.209991 -89.211272 95.506055 -59.885096 64.766577 59.860823 -38.734779 32.328946 0.000000 0.000000 0.000000 -7.125000 0.000000 0.000000 14.683654 -20.203116 19.347885 0.000000 0.000000 0.000000 -27.503981 36.790982 84.084980 -70.760074 -58.554029 -43.418678 -66.272591 -12.973119 -16.731188 0.000000 0.000000 0.000000 7.125000 0.000000 0.000000 -22.938582 -4.339411 -26.781243
4.117314 16.224065 -4.263436 28.971641 -79.460069 -26.244089 0.000000 0.000000 0.000000 -30.256616 21.783296 -15.120582 1.288384 7.192448 20.286703 0.019227 -17.467684 -12.461550 0.111415 2.152068 5.926171 0.000000 0.000000 0.000000 7.066069 -0.401682 -32.811523 -6.416104 -14.819847 46.629771 -0.981913 -8.413963 -23.558692 -0.008774 -0.606213 1.665942 -3.553517 -0.444775 -0.574930 -4.419231 -0.644461 -0.072964 -2.552662 -0.360210 0.233674 -7.662549 -7.555817 -3.734315 22.997103 -10.814368 -0.878056 7.872444 -5.375709 2.158477 0.000000 0.000000 0.000000 44.439304 30.743697 -88.454741 95.164226 -59.898981 64.470804 60.198833 -39.196186 32.574353 0.000000 0.000000 0.000000 -7.125000 0.000000 0.000000 14.764557 -20.727643 19.535885 0.000000 0.000000 0.000000 -27.847592 36.278939 84.329957 -70.803035 -58.560653 -43.455330 -66.502952 -13.406979 -16.709301 0.000000 0.000000 0.000000 7.125000 0.000000 0.000000 -23.064422 -4.514514 -27.022263
4.077437 16.260795 -4.283845 29.437214 -81.388726 -26.256752 0.000000 0.000000 0.000000 -29.538882 24.224037 -16.629662 1.264432 7.127818 20.094555 -0.346337 -19.452004 -10.511436 0.230599 3.089991 8.529589 0.000000 0.000000 0.000000 6.848880 5.176341 -33.314503 -7.134072 -15.443520 49.379178 -0.795403 -8.946367 -22.366458 -0.094150 1.954470 -5.380654 -3.198589 -0.530236 -1.387758 -4.036352 -0.717613 -0.374454 -2.363448 -0.392218 0.379838 -7.295662 -7.122726 -4.062273 21.759506 -10.118762 -0.883981 7.450458 -5.011153 2.003395 0.000000 0.000000 0.000000 43.212851 32.057766 -86.778919 95.013484 -59.904809 64.340438 58.614594 -38.201506 33.044410 0.000000 0.000000 0.000000 -7.125000 0.000000 0.000000 13.787326 -20.116512 18.097770 0.000000 0.000000 0.000000 -28.848156 36.364932 84.623200 -72.552317 -58.817847 -44.949856 -66.391577 -13.315681 -16.715040 0.000000 0.000000 0.000000 7.125000 0.000000 0.000000 -23.004875 -4.421516 -26.904331
4.029171 16.242565 -4.333454 32.480322 -81.609638 -29.642516 0.000000 0.000000 0.000000 -29.545050 27.119864 -17.536132 1.315354 7.264227 20.500515 -0.846121 -22.136352 -8.245396 0.358579 3.846756 10.645994 0.000000 0.000000 0.000000 4.571083 8.640332 -33.221985 -8.093463 -16.187535 52.898709 -0.600581 -5.438508 -17.627342 -1.185222 6.908251 -19.444176 -3.895758 -0.926299 -1.094281 -4.040015 -1.264586 -0.419619 -1.980529 -0.666116 0.173469 -7.291860 -6.898944 -3.175690 20.957373 -9.497202 -2.548217 7.296164 -4.833804 1.233203 0.000000 0.000000 0.000000 43.249944 32.547065 -87.398279 94.693130 -59.916595 64.063200 60.094172 -39.185719 32.864186 0.000000 0.000000 0.000000 -7.125000 0.000000 0.000000 14.602963 -20.975402 19.345793 0.000000 0.000000 0.000000 -28.772311 37.165029 83.793935 -73.225051 -58.909586 -45.525630 -65.736147 -12.755418 -16.670893 0.000000 0.000000 0.000000 7.125000 0.000000 0.000000 -22.677013 -3.757531 -26.200193
